HIERARCHY
ROOT Hips
{
	OFFSET -0.179506 -22.333345 2.821913
	CHANNELS 6 Xposition Yposition Zposition Zrotation Yrotation Xrotation 
	JOINT LeftUpLeg
	{
		OFFSET 6.951974 -9.140623 -0.681533
		CHANNELS 3 Zrotation Yrotation Xrotation
		JOINT LeftLeg
		{
			OFFSET 3.427654 -37.519855 -0.449580
			CHANNELS 3 Zrotation Yrotation Xrotation
			JOINT LeftFoot
			{
				OFFSET -1.359570 -39.796059 -4.369333
				CHANNELS 3 Zrotation Yrotation Xrotation
				JOINT LeftToe
				{
					OFFSET 2.635814 -5.579078 11.928840
					CHANNELS 3 Zrotation Yrotation Xrotation
					End Site
					{
						OFFSET 0.000000 0.000000 0.000000
					}
				}
			}
		}
	}
	JOINT RightUpLeg
	{
		OFFSET -6.767048 -9.052170 -0.431982
		CHANNELS 3 Zrotation Yrotation Xrotation
		JOINT RightLeg
		{
			OFFSET -3.829005 -38.256897 -0.885003
			CHANNELS 3 Zrotation Yrotation Xrotation
			JOINT RightFoot
			{
				OFFSET 1.577377 -39.841461 -4.231180
				CHANNELS 3 Zrotation Yrotation Xrotation
				JOINT RightToe
				{
					OFFSET -2.537174 -4.814398 12.334795
					CHANNELS 3 Zrotation Yrotation Xrotation
					End Site
					{
						OFFSET 0.000000 0.000000 0.000000
					}
				}
			}
		}
	}
	JOINT Spine
	{
		OFFSET -0.253288 10.896323 -2.669631
		CHANNELS 3 Zrotation Yrotation Xrotation
		JOINT Spine1
		{
			OFFSET 0.548704 13.518043 0.109247
			CHANNELS 3 Zrotation Yrotation Xrotation
			JOINT Spine2
			{
				OFFSET 0.145701 5.292222 2.542457
				CHANNELS 3 Zrotation Yrotation Xrotation
				JOINT Neck
				{
					OFFSET -0.277840 21.387037 -4.285703
					CHANNELS 3 Zrotation Yrotation Xrotation
					JOINT Head
					{
						OFFSET 0.515184 6.496960 5.134897
						CHANNELS 3 Zrotation Yrotation Xrotation
						End Site
						{
							OFFSET 0.000000 0.000000 0.000000
						}
					}
				}
				JOINT LeftShoulder
				{
					OFFSET 7.884473 12.174932 -3.408961
					CHANNELS 3 Zrotation Yrotation Xrotation
					JOINT LeftArm
					{
						OFFSET 9.097692 3.046888 -0.886815
						CHANNELS 3 Zrotation Yrotation Xrotation
						JOINT LeftForeArm
						{
							OFFSET 25.961220 -1.277207 -2.745643
							CHANNELS 3 Zrotation Yrotation Xrotation
							JOINT LeftHand
							{
								OFFSET 24.923361 0.898606 -0.117091
								CHANNELS 3 Zrotation Yrotation Xrotation
								End Site
								{
									OFFSET 0.000000 0.000000 0.000000
								}
							}
						}
					}
				}
				JOINT RightShoulder
				{
					OFFSET -8.175920 11.883285 -3.861528
					CHANNELS 3 Zrotation Yrotation Xrotation
					JOINT RightArm
					{
						OFFSET -9.601238 3.255117 -0.914307
						CHANNELS 3 Zrotation Yrotation Xrotation
						JOINT RightForeArm
						{
							OFFSET -25.374195 -1.332924 -2.140099
							CHANNELS 3 Zrotation Yrotation Xrotation
							JOINT RightHand
							{
								OFFSET -25.529810 0.777228 -0.555919
								CHANNELS 3 Zrotation Yrotation Xrotation
								End Site
								{
									OFFSET 0.000000 0.000000 0.000000
								}
							}
						}
					}
				}
			}
		}
	}
}
MOTION
Frames: 9
Frame Time: 0.033333
-14.009030 -46.127289 90.281700 -121.955395 2.695864 84.794905 12.485187 6.358886 -6.619270 -7.329233 -0.219087 29.828082 1.748993 13.653408 -28.997134 nan nan nan -12.650004 -13.597223 -13.335170 2.096948 -13.420784 20.594380 2.745029 -10.791933 -7.478767 nan nan nan -6.251548 2.007404 3.546059 7.208915 -6.277575 11.513135 1.373740 -0.322380 -4.832524 3.669434 -20.621119 16.517333 6.130149 -14.754518 17.268061 -17.678309 -12.046459 3.720147 -52.551325 -46.997475 22.590195 143.852837 -70.670107 -108.736695 28.313855 -16.493346 6.582387 16.811001 7.183445 -3.440556 31.115605 20.733513 -7.785892 -82.177938 50.588033 -58.085526 -28.800215 9.229016 2.609226 
-14.032967 -46.124523 90.263069 -121.944149 2.708693 84.761896 12.566952 6.430792 -6.638734 -7.466724 -0.152819 29.908438 1.622239 13.678209 -28.890276 nan nan nan -12.635652 -13.509133 -13.224470 2.118103 -13.367957 20.449433 2.882963 -10.935556 -7.377089 nan nan nan -6.198249 1.947821 3.501144 7.144685 -6.290754 11.602564 1.315308 -0.290845 -4.754155 3.844808 -20.590231 16.194645 5.993656 -14.845783 17.519975 -17.501218 -12.086822 3.680094 -52.560230 -47.084592 22.462281 143.864130 -70.643317 -108.551560 28.764818 -16.577386 6.760814 16.757444 7.160312 -3.424144 31.210220 20.834761 -7.828244 -82.094736 50.598888 -57.706335 -29.252248 9.301504 3.122316 
-14.071369 -46.077652 90.309570 -121.938676 2.748634 84.493292 12.747137 5.839984 -6.061168 -7.118352 0.890017 29.490484 2.160091 12.845467 -28.715972 nan nan nan -12.781669 -12.933866 -12.550912 2.186973 -14.206496 19.903286 2.381559 -10.584769 -7.292617 nan nan nan -6.673392 2.755527 3.646392 7.542065 -6.317833 11.828987 1.876630 -0.489892 -5.028507 3.442615 -20.584999 16.683284 6.983602 -15.192387 16.787233 -16.734466 -12.269626 3.760105 -56.679848 -46.512296 26.546443 143.320529 -70.977066 -118.011898 0.187328 -15.665055 -7.973388 16.044575 7.263562 -5.063803 31.887354 19.092275 -6.374016 -87.657738 50.242412 -70.858201 0.215219 6.197543 -8.134657 
-14.063594 -46.086235 90.302612 -121.948752 2.761902 84.501201 12.733865 5.782749 -6.056868 -7.019830 0.882632 29.458850 2.289524 12.783236 -28.748639 nan nan nan -12.741949 -12.915695 -12.600242 2.124023 -14.265049 19.897673 2.314043 -10.547609 -7.331882 nan nan nan -6.656736 2.813064 3.608890 7.545835 -6.283233 11.975935 1.909475 -0.560638 -5.146944 3.541971 -20.526830 16.608056 6.919514 -15.272134 16.758289 -16.728614 -12.301053 3.641904 -56.828362 -46.476902 26.578491 143.034750 -70.981629 -117.730984 -1.027205 -16.017742 -7.955646 15.958811 7.293523 -5.176025 32.022557 19.030812 -6.261563 -87.717302 50.089764 -70.909298 1.064723 6.273324 -8.345951 
-14.059131 -46.078621 90.313660 -121.962022 2.745810 84.514121 12.717996 5.798050 -6.050601 -7.021709 0.800431 29.398574 2.374568 12.818217 -28.738185 nan nan nan -12.727916 -12.938960 -12.630515 2.111005 -14.186490 19.913840 2.286887 -10.581776 -7.362459 nan nan nan -6.682376 2.771541 3.737941 7.543142 -6.300496 11.725969 1.905642 -0.565952 -5.065044 3.474206 -20.456712 16.617005 6.986814 -15.105874 16.672471 -16.717676 -12.227503 3.541975 -56.308202 -46.479519 26.367742 143.781142 -71.086756 -118.475513 -0.543503 -15.846606 -7.957203 16.005879 7.161299 -5.248069 32.020635 19.127816 -6.235586 -87.539425 50.441113 -70.826652 0.707244 6.175439 -8.205745 
-14.060445 -46.077953 90.333710 -121.938103 2.774201 84.502695 12.742159 5.914049 -6.082622 -6.997315 0.723174 29.422438 2.528100 12.827841 -28.621109 nan nan nan -12.687375 -13.000053 -12.593600 2.137008 -14.048624 19.924410 2.248908 -10.658316 -7.292522 nan nan nan -6.641926 2.671186 4.064212 7.532273 -6.336041 11.110170 1.891498 -0.547822 -4.801624 3.362874 -20.336071 16.682630 7.168749 -14.793644 16.416159 -16.713395 -12.186227 3.454490 -55.285739 -46.547543 25.858073 145.027730 -71.228364 -119.854484 -0.027526 -15.550337 -8.118506 15.987107 6.878902 -5.278755 32.031703 19.363726 -6.479199 -87.177123 51.162910 -70.781244 0.543500 5.865321 -7.900764 
-14.062764 -46.083244 90.335808 -121.918133 2.793587 84.493650 12.759069 5.974532 -6.090036 -7.010818 0.667655 29.460733 2.489785 12.812189 -28.510852 nan nan nan -12.686912 -13.049478 -12.553175 2.189019 -14.004186 19.909697 2.209160 -10.689599 -7.281729 nan nan nan -6.632484 2.650899 4.146968 7.535982 -6.347506 10.888970 1.905253 -0.551295 -4.651225 3.270027 -20.325805 16.721084 7.299168 -14.630689 16.230302 -16.712532 -12.241949 3.476520 -54.748637 -46.634756 25.524646 145.531467 -71.270935 -120.492955 0.266212 -15.405896 -8.140727 15.943547 6.754175 -5.293701 31.966744 19.449861 -6.732557 -86.916295 51.553759 -70.842053 0.476886 5.750508 -7.746195 
-14.060949 -46.088097 90.336891 -121.932522 2.816143 84.469373 12.784921 5.983743 -6.029855 -7.072220 0.654183 29.452638 2.296947 12.824145 -28.454512 nan nan nan -12.684762 -13.062405 -12.517207 2.213440 -14.037932 19.892913 2.212260 -10.673393 -7.293052 nan nan nan -6.631934 2.686961 4.056798 7.550973 -6.330420 10.993670 1.923172 -0.551038 -4.578547 3.305800 -20.323325 16.640573 7.311426 -14.673656 16.191087 -16.656728 -12.314968 3.506455 -55.002391 -46.622213 25.596706 145.308327 -71.261533 -120.205200 0.592988 -15.363422 -8.007318 15.910166 6.793586 -5.329369 31.917605 19.398712 -6.827795 -86.819575 51.565792 -70.839479 0.204733 5.795371 -7.733063 
-14.069002 -46.090343 90.336311 -121.953287 2.809140 84.467445 12.772916 5.956145 -6.001022 -7.102293 0.671660 29.404615 2.060822 12.809625 -28.502861 nan nan nan -12.680013 -13.070777 -12.550256 2.184716 -14.075997 19.920927 2.239228 -10.626590 -7.317109 nan nan nan -6.656136 2.692873 3.942655 7.549784 -6.322952 11.042701 1.936894 -0.537676 -4.494489 3.309182 -20.251014 16.632784 7.330904 -14.765847 16.122357 -16.587249 -12.284234 3.451205 -55.573838 -46.494849 25.788553 144.997707 -71.308838 -119.731761 0.821467 -15.519603 -7.680367 15.943816 6.838648 -5.356473 31.831213 19.364649 -6.918995 -86.655916 51.610563 -70.781271 0.077443 6.028517 -7.683427 
